<svg xmlns="http://www.w3.org/2000/svg" enable-background="new 0 0 24 24" viewBox="0 0 24 24" id="glide-g"><path fill="#1F98FF" d="M21.75,12.87c0-0.375-1.565-2.836-1.917-2.972L19.831,9.9c-0.164-0.066-0.544-0.178-0.722-0.178c-1.739,0-2.916,0.787-4.383,1.617l-0.042-0.042c0.327-2.217,1.101-4.308,1.101-6.581C15.786,1.364,13.995,0,10.705,0C5.31,0,2.576,5.33,2.576,9.3c0,4.12,2.405,6.404,6.498,6.404c0.563,0,0.516-0.047,0.516,0.178c-0.792,6.042-4.256,6.24-4.256,4.434c0-1.837,2.109-2.747,2.133-2.86c-0.014-0.572-2.203-1.294-2.761-1.294c-1.59,0.005-2.456,2.4-2.456,3.717c0,2.433,1.538,4.12,4.008,4.12c3.628,0,6.281-3.647,7.097-6.816c0.708-2.836,0.525-2.967,0.923-3.169c1.509-0.76,2.695-1.266,4.397-1.266c0.834,0,1.43,0.173,2.761,0.394C21.572,13.143,21.75,13.006,21.75,12.87L21.75,12.87z M11.615,5.943l-0.001,0.001c-0.437,2.095-0.872,4.2-1.304,6.295c-0.107,0.478-0.623,0.366-1.03,0.366c-1.796,0-2.298-1.959-2.298-3.427c0-2.203,0.845-5.123,2.898-6.253c0.328-0.193,0.694-0.315,1.059-0.315c0.872,0,0.938,0.624,0.938,1.345C11.872,4.626,11.75,5.292,11.615,5.943L11.615,5.943z"></path><path fill="#DEDEDE" d="M9.75 22.779C8.738 23.529 7.561 24 6.258 24H9.75V22.779L9.75 22.779zM9.75 3C7.792 4.179 6.982 7.022 6.982 9.178c0 1.468.502 3.427 2.298 3.427.13 0 .271.011.407.011.021 0 .042 0 .063-.001V3L9.75 3z"></path><path fill="#1B84DE" d="M9.75,0.057C4.987,0.643,2.576,5.572,2.576,9.3c0,4.12,2.405,6.404,6.498,6.404c0.166,0,0.279-0.004,0.356-0.004c0.183,0,0.16,0.023,0.16,0.182c-0.523,3.988-2.21,5.43-3.296,5.43c-0.559,0-0.96-0.382-0.96-0.996c0-1.837,2.109-2.747,2.133-2.86c-0.014-0.572-2.203-1.294-2.761-1.294c-1.59,0.005-2.456,2.4-2.456,3.717c0,2.433,1.538,4.12,4.008,4.12l0,0c1.303,0,2.48-0.47,3.492-1.22V12.616c-0.021,0.001-0.042,0.001-0.063,0.001c-0.135,0-0.277-0.011-0.407-0.011c-1.796,0-2.298-1.959-2.298-3.427C6.982,7.022,7.792,4.179,9.75,3V0.057L9.75,0.057z"></path></svg>